<mxfile host="Electron" agent="Mozilla/5.0 (Macintosh; Intel Mac OS X 10_15_7) AppleWebKit/537.36 (KHTML, like Gecko) draw.io/24.7.17 Chrome/128.0.6613.36 Electron/32.0.1 Safari/537.36" version="24.7.17">
  <diagram name="Page-1" id="Nk6nnuZ2H_mtRv-XkNLO">
    <mxGraphModel dx="1026" dy="772" grid="1" gridSize="10" guides="1" tooltips="1" connect="1" arrows="1" fold="1" page="1" pageScale="1" pageWidth="850" pageHeight="1100" math="0" shadow="0">
      <root>
        <mxCell id="0" />
        <mxCell id="1" parent="0" />
        <mxCell id="gJO2D1-hQXrOZjUZBcMq-5" style="edgeStyle=orthogonalEdgeStyle;rounded=0;orthogonalLoop=1;jettySize=auto;html=1;exitX=0;exitY=0.5;exitDx=0;exitDy=0;entryX=0;entryY=0.5;entryDx=0;entryDy=0;endArrow=none;endFill=0;" edge="1" parent="1" source="gJO2D1-hQXrOZjUZBcMq-1" target="gJO2D1-hQXrOZjUZBcMq-4">
          <mxGeometry relative="1" as="geometry" />
        </mxCell>
        <mxCell id="gJO2D1-hQXrOZjUZBcMq-6" value="+/-" style="edgeLabel;html=1;align=center;verticalAlign=middle;resizable=0;points=[];" vertex="1" connectable="0" parent="gJO2D1-hQXrOZjUZBcMq-5">
          <mxGeometry x="0.1368" y="-3" relative="1" as="geometry">
            <mxPoint x="532" y="-13" as="offset" />
          </mxGeometry>
        </mxCell>
        <mxCell id="gJO2D1-hQXrOZjUZBcMq-1" value="" style="pointerEvents=1;verticalLabelPosition=bottom;shadow=0;dashed=0;align=center;html=1;verticalAlign=top;shape=mxgraph.electrical.miscellaneous.batteryStack;direction=south;" vertex="1" parent="1">
          <mxGeometry x="110" y="380" width="60" height="100" as="geometry" />
        </mxCell>
        <mxCell id="gJO2D1-hQXrOZjUZBcMq-3" style="edgeStyle=orthogonalEdgeStyle;rounded=0;orthogonalLoop=1;jettySize=auto;html=1;entryX=1;entryY=0.5;entryDx=0;entryDy=0;endArrow=none;endFill=0;" edge="1" parent="1" source="gJO2D1-hQXrOZjUZBcMq-2" target="gJO2D1-hQXrOZjUZBcMq-1">
          <mxGeometry relative="1" as="geometry" />
        </mxCell>
        <mxCell id="gJO2D1-hQXrOZjUZBcMq-2" value="Chassis Ground" style="pointerEvents=1;verticalLabelPosition=bottom;shadow=0;dashed=0;align=center;html=1;verticalAlign=top;shape=mxgraph.electrical.signal_sources.signal_ground;" vertex="1" parent="1">
          <mxGeometry x="117.5" y="510" width="45" height="30" as="geometry" />
        </mxCell>
        <mxCell id="gJO2D1-hQXrOZjUZBcMq-11" style="edgeStyle=orthogonalEdgeStyle;rounded=0;orthogonalLoop=1;jettySize=auto;html=1;exitX=1;exitY=0.5;exitDx=0;exitDy=0;entryX=0;entryY=0.5;entryDx=0;entryDy=0;endArrow=none;endFill=0;" edge="1" parent="1" source="gJO2D1-hQXrOZjUZBcMq-4" target="gJO2D1-hQXrOZjUZBcMq-8">
          <mxGeometry relative="1" as="geometry" />
        </mxCell>
        <mxCell id="gJO2D1-hQXrOZjUZBcMq-16" value="+" style="edgeLabel;html=1;align=center;verticalAlign=middle;resizable=0;points=[];" vertex="1" connectable="0" parent="gJO2D1-hQXrOZjUZBcMq-11">
          <mxGeometry x="-0.1778" y="-1" relative="1" as="geometry">
            <mxPoint x="3" y="-11" as="offset" />
          </mxGeometry>
        </mxCell>
        <mxCell id="gJO2D1-hQXrOZjUZBcMq-4" value="Power Regulator Board" style="whiteSpace=wrap;html=1;aspect=fixed;" vertex="1" parent="1">
          <mxGeometry x="230" y="200" width="160" height="160" as="geometry" />
        </mxCell>
        <mxCell id="gJO2D1-hQXrOZjUZBcMq-7" value="Chassis Ground" style="pointerEvents=1;verticalLabelPosition=bottom;shadow=0;dashed=0;align=center;html=1;verticalAlign=top;shape=mxgraph.electrical.signal_sources.signal_ground;" vertex="1" parent="1">
          <mxGeometry x="287.5" y="360" width="45" height="30" as="geometry" />
        </mxCell>
        <mxCell id="gJO2D1-hQXrOZjUZBcMq-14" style="edgeStyle=orthogonalEdgeStyle;rounded=0;orthogonalLoop=1;jettySize=auto;html=1;exitX=1;exitY=0.5;exitDx=0;exitDy=0;entryX=0;entryY=0.5;entryDx=0;entryDy=0;endArrow=none;endFill=0;" edge="1" parent="1" source="gJO2D1-hQXrOZjUZBcMq-8" target="gJO2D1-hQXrOZjUZBcMq-13">
          <mxGeometry relative="1" as="geometry" />
        </mxCell>
        <mxCell id="gJO2D1-hQXrOZjUZBcMq-8" value="Fuse box" style="whiteSpace=wrap;html=1;aspect=fixed;" vertex="1" parent="1">
          <mxGeometry x="480" y="200" width="160" height="160" as="geometry" />
        </mxCell>
        <mxCell id="gJO2D1-hQXrOZjUZBcMq-12" value="Chassis Ground" style="pointerEvents=1;verticalLabelPosition=bottom;shadow=0;dashed=0;align=center;html=1;verticalAlign=top;shape=mxgraph.electrical.signal_sources.signal_ground;" vertex="1" parent="1">
          <mxGeometry x="537.5" y="360" width="45" height="30" as="geometry" />
        </mxCell>
        <mxCell id="gJO2D1-hQXrOZjUZBcMq-13" value="Sensors" style="whiteSpace=wrap;html=1;aspect=fixed;" vertex="1" parent="1">
          <mxGeometry x="720" y="240" width="80" height="80" as="geometry" />
        </mxCell>
        <mxCell id="gJO2D1-hQXrOZjUZBcMq-15" value="+" style="edgeLabel;html=1;align=center;verticalAlign=middle;resizable=0;points=[];" vertex="1" connectable="0" parent="1">
          <mxGeometry x="200" y="270" as="geometry">
            <mxPoint x="-1" y="-6" as="offset" />
          </mxGeometry>
        </mxCell>
      </root>
    </mxGraphModel>
  </diagram>
</mxfile>
